<?xml version="1.0" encoding="utf-8"?>
<!-- Generator: Adobe Illustrator 21.0.0, SVG Export Plug-In . SVG Version: 6.00 Build 0)  -->
<svg version="1.1" id="Layer_1" xmlns="http://www.w3.org/2000/svg" xmlns:xlink="http://www.w3.org/1999/xlink" x="0px" y="0px"
	 viewBox="0 0 344 344" style="enable-background:new 0 0 344 344;" xml:space="preserve">
<style type="text/css">
	.st0{fill:#00BCE1;}
	.st1{fill:#FEFEFE;}
</style>
<g>
	<circle class="st0" cx="172" cy="172" r="172"/>
	<path class="st1" d="M90.9,153.6c0.6,0.6,1.4,1.2,2.1,1.9c15.1,15.1,30.2,30.1,45.2,45.3c2.1,2.1,3.1,2,5.1-0.1
		c35.7-35.9,71.6-71.6,107.3-107.5c2.3-2.3,3.4-2.4,5.6,0c6.5,6.8,13.2,13.5,20,20.1c1.6,1.6,2.1,2.5,0.2,4.4
		c-44.6,44.5-89.1,89-133.6,133.6c-1.9,1.9-2.8,1.5-4.4-0.1C115,227.5,91.4,204,67.8,180.5c-1.7-1.6-2.1-2.6-0.2-4.4
		c7.1-6.9,14-13.9,21-20.9C89.3,154.5,89.7,153.7,90.9,153.6z"/>
</g>
</svg>
