<svg id="Layer_1" data-name="Layer 1" xmlns="http://www.w3.org/2000/svg" viewBox="0 0 150.13 289.42"><defs><style>.cls-1{fill:#fff;}</style></defs><title>fb-white</title><path class="cls-1" d="M147.53,107.16c-11.15.24-22.31-.49-33.45.4-4.82-.09-9.65-.27-14.47-.22-2.2,0-3.36-.34-3.26-2.95.32-8.82-.45-17.66.71-26.46,1.69-12.93,9.47-21.06,22.32-23.4,8.78-1.6,17.62-.64,26.43-.77,3,0,4.37-.47,4.32-4-.21-15.16-.18-30.32,0-45.48,0-3.21-.77-4.32-4.12-4.28-13,.18-26,0-39,.12C99.14.2,91.38,1.25,84,4.25,59.15,14.39,48,34.54,44.09,59.73c-2.17,13.9-.89,27.94-1,41.92,0,4.22-.81,5.78-5.41,5.63-11.15-.37-22.32,0-33.49-.18-3.23,0-4.24.84-4.2,4.18.19,15,.24,30,0,45-.07,4,1.31,4.59,4.82,4.53,11.16-.21,22.33.06,33.49-.16,3.58-.07,5.1.63,4.79,4.58-.34,4.46,0,9,.09,13.48h0q-.09,53.74-.25,107.47c0,3.48,2,3.14,4.19,3.13,14.5,0,29-.23,43.49.12,4.92.12,6-1.32,6-6.09-.2-39.16,0-78.32-.21-117.48,0-4.16,1.07-5.34,5.24-5.23,11.32.29,22.66.07,34,.13,2.15,0,3.8,0,4.33-2.79q4.6-24,9.48-48C149.84,108.07,149.72,107.11,147.53,107.16Z"/></svg>