<?xml version="1.0" encoding="utf-8"?>
<!-- Generator: Adobe Illustrator 22.0.1, SVG Export Plug-In . SVG Version: 6.00 Build 0)  -->
<svg version="1.1" id="Layer_1" xmlns="http://www.w3.org/2000/svg" xmlns:xlink="http://www.w3.org/1999/xlink" x="0px" y="0px"
	 viewBox="0 0 850.7 281.6" style="enable-background:new 0 0 850.7 281.6;" xml:space="preserve">
<style type="text/css">
	.st0{fill:#02BCE1;}
	.st1{fill:url(#SVGID_1_);}
	.st2{fill:#FFFFFF;}
</style>
<g>
	<g>
		<circle class="st0" cx="140.7" cy="140.8" r="139.3"/>
	</g>
</g>
<g>
	<g>
		<linearGradient id="SVGID_1_" gradientUnits="userSpaceOnUse" x1="-115.4811" y1="140.7574" x2="315.5479" y2="140.7574">
			<stop  offset="0" style="stop-color:#10143B;stop-opacity:0.8"/>
			<stop  offset="0.7739" style="stop-color:#00BCE1"/>
			<stop  offset="1" style="stop-color:#BDDDE6"/>
		</linearGradient>
		<circle class="st1" cx="140.7" cy="140.8" r="139.3"/>
	</g>
</g>
<g>
	<g>
		<path class="st2" d="M85.6,216h-0.5c-13.2,0-23.8-10.7-23.8-23.8V89.4c0-13.2,10.7-23.8,23.8-23.8h0.5c13.2,0,23.8,10.7,23.8,23.8
			v102.8C109.4,205.3,98.8,216,85.6,216z"/>
	</g>
	<g>
		<path class="st2" d="M168.3,173.5V108c0-11.1-9-20.1-20.1-20.1h0c-11.1,0-20.1,9-20.1,20.1v65.6c0,11.1,9,20.1,20.1,20.1h0
			C159.3,193.6,168.3,184.6,168.3,173.5z"/>
	</g>
	<g>
		<path class="st2" d="M220,156.2v-30.8c0-8.9-7.2-16.1-16.1-16.1H203c-8.9,0-16.1,7.2-16.1,16.1v30.8c0,8.9,7.2,16.1,16.1,16.1h0.9
			C212.9,172.2,220,165,220,156.2z"/>
	</g>
</g>
<g>
	<g>
		<path class="st2" d="M389.7,87c-31.2,0-56.6,25.3-56.6,56.6s25.3,56.6,56.6,56.6c31.2,0,56.6-25.3,56.6-56.6S420.9,87,389.7,87z
			 M389.7,179c-19.6,0-35.4-15.9-35.4-35.4c0-19.6,15.9-35.4,35.4-35.4s35.4,15.9,35.4,35.4C425.1,163.2,409.2,179,389.7,179z"/>
	</g>
	<g>
		<path class="st2" d="M512.9,87c-30.3,0-54.8,25.3-54.8,56.6c0,0,0,0,0,0v85.1h20.5v-41c9.4,7.8,21.3,12.5,34.3,12.5
			c30.3,0,54.8-25.3,54.8-56.6S543.2,87,512.9,87z M512.9,179c-19,0-34.3-15.9-34.3-35.4v0l0,0c0-19.6,15.4-35.4,34.3-35.4
			c19,0,34.3,15.9,34.3,35.4C547.2,163.2,531.9,179,512.9,179z"/>
	</g>
	<g>
		<rect x="578.3" y="52.8" class="st2" width="21.2" height="147.4"/>
	</g>
	<g>
		<path class="st2" d="M666.6,87c-31.2,0-56.6,25.3-56.6,56.6s25.3,56.6,56.6,56.6c13.3,0,25.6-4.6,35.3-12.3v12.3H723v-52.4
			c0.1-1.4,0.2-2.8,0.2-4.2C723.2,112.4,697.9,87,666.6,87z M666.6,179c-19.6,0-35.4-15.9-35.4-35.4c0-19.6,15.9-35.4,35.4-35.4
			c18.4,0,33.5,14,35.3,32v6.9C700.1,165,685,179,666.6,179z"/>
	</g>
	<path class="st2" d="M848.8,137.9c-2.9-28.6-27-50.8-56.3-50.8c-29.3,0-53.4,22.3-56.3,50.8l-0.2,0.5v3.3c0,0.7-0.1,1.3-0.1,2
		s0,1.3,0.1,2v54.1h21.2v-12v-0.5v-42.6v-1.5c0-1.2,0.1-2.3,0.2-3.4c0.1-0.5,0.1-0.9,0.2-1.4c0-0.2,0-0.3,0.1-0.5
		c2.7-16.8,17.3-29.7,34.9-29.7c17.6,0,32.2,12.9,34.9,29.7c0,0.2,0,0.3,0.1,0.5c0.2,1.6,0.5,3.2,0.5,4.8v44.1v12.5H849h0.1v-52.9
		L848.8,137.9z"/>
</g>
<g>
</g>
<g>
</g>
<g>
</g>
<g>
</g>
<g>
</g>
<g>
</g>
</svg>
